<?xml version="1.0" encoding="utf-8"?>
<!-- Generator: Adobe Illustrator 17.1.0, SVG Export Plug-In . SVG Version: 6.00 Build 0)  -->
<!DOCTYPE svg PUBLIC "-//W3C//DTD SVG 1.1//EN" "http://www.w3.org/Graphics/SVG/1.1/DTD/svg11.dtd">
<svg version="1.1" xmlns="http://www.w3.org/2000/svg" xmlns:xlink="http://www.w3.org/1999/xlink" x="0px" y="0px"
	 viewBox="0 0 432 288" enable-background="new 0 0 432 288" xml:space="preserve">
<g id="Layer_1">
</g>
<g id="Layer_2">
	<g>
		<path fill="#454545" d="M368,100h-45.7V21.3c0-2.2-1.8-4-4-4H8.9c-2.2,0-4,1.8-4,4V231c0,2.2,1.8,4,4,4h117l-4,29l-12.9,3.8v4.6
			h107.6v-4.8l-12.5-3.5l-4-29h40.2v33.3c0,2.2,1.8,4,4,4H368c2.2,0,4-1.8,4-4V104C372,101.8,370.2,100,368,100z M22.3,193.7v-160
			H303V100h-58.7c-2.2,0-4,1.8-4,4v89.7H22.3z M306.2,267.3c-2.6,0-4.7-2.1-4.7-4.7s2.1-4.7,4.7-4.7s4.7,2.1,4.7,4.7
			S308.7,267.3,306.2,267.3z M358,252.3H254.7V235v-41.3v-80H303h19.3H358V252.3z"/>
		<path fill="#454545" d="M421.7,191H388c-2.2,0-4,1.8-4,4v73.3c0,2.2,1.8,4,4,4h33.7c2.2,0,4-1.8,4-4V195
			C425.7,192.8,423.9,191,421.7,191z M405.3,269.3c-2.3,0-4.2-1.9-4.2-4.2c0-2.3,1.9-4.2,4.2-4.2c2.3,0,4.2,1.9,4.2,4.2
			C409.5,267.5,407.6,269.3,405.3,269.3z M421.3,258h-32v-55h32V258z"/>
	</g>
</g>
</svg>
