<?xml version="1.0" encoding="utf-8"?>
<!-- Generator: Adobe Illustrator 17.1.0, SVG Export Plug-In . SVG Version: 6.00 Build 0)  -->
<!DOCTYPE svg PUBLIC "-//W3C//DTD SVG 1.1//EN" "http://www.w3.org/Graphics/SVG/1.1/DTD/svg11.dtd">
<svg version="1.1" xmlns="http://www.w3.org/2000/svg" xmlns:xlink="http://www.w3.org/1999/xlink" x="0px" y="0px"
	 viewBox="0 0 432 288" enable-background="new 0 0 432 288" xml:space="preserve">
<g id="Layer_1">
	<g>
		<path fill="#454545" d="M77.2,129.6c2-9.2,3.1-18.7,6.2-27.5c18-52.5,54.6-84.4,109.3-92.9c70.5-11,136.3,36.2,151,106.1
			c13.7,65.2-24.2,132-87.3,153.9c-7.5,2.6-11.2,0.1-11.3-7.6c-0.1-9.6,0-19.3,0-28.9c-0.1-10.9-0.3-21.7-8.8-30.9
			c5.6-1,10.5-1.8,15.3-2.9c10.7-2.6,20.4-7.2,28.6-14.6c10.4-9.5,14.6-22.1,16.2-35.5c1.7-13.6,2.2-27.7-6.1-39.6
			c-4.8-7-6.1-13.1-4.6-21.5c1.2-6.3-1.6-13.3-2.3-20c-0.6-4.8-3.9-5.2-7.2-4.2c-6.3,1.9-13.2,3.3-18.5,6.9
			c-8.9,6-17.4,6.2-27.5,4.1c-15.9-3.3-32-1.7-47.9,1.7c-2.5,0.5-5.7-0.3-8.2-1.3c-8.7-3.5-17.1-7.8-25.9-11c-5.7-2.1-7.3-0.8-9,5
			c-2.6,8.9-3.5,17.8-0.7,26.8c0.6,1.8,0.2,4.7-1,6.2c-14.9,19-13.8,40-7.4,61.3c6.8,22.9,24.7,32.6,46.6,36.9c3,0.6,6.1,1,8.5,1.4
			c-2.2,5.7-4.3,11.3-6.6,16.8c-0.3,0.8-1.3,1.7-2.1,2c-12.9,4.8-26.3,4.7-35.3-8.9c-4.9-7.5-10.5-14.1-19.8-16.1
			c-2.7-0.6-5.7-0.1-8.5-0.1c-0.2,0.6-0.5,1.1-0.7,1.7c1.8,1.9,3.3,4.3,5.5,5.7c6.4,4,10.9,9.6,13.4,16.4
			c6.9,18.7,20,20.4,36.5,20.4c3.1,0,6.3-0.4,10.2-0.7c0,9,0.4,17.9-0.2,26.6c-0.3,4.5-4.9,6-10.5,4.1
			c-23.9-8.2-43.9-22.2-59.8-41.8c-16.5-20.3-26.8-43.2-29.5-69.4c-0.1-0.8-0.6-1.6-0.9-2.3C77.2,147.1,77.2,138.4,77.2,129.6z"/>
	</g>
</g>
<g id="Layer_2">
</g>
</svg>
