<?xml version="1.0" encoding="utf-8"?>
<!-- Generator: Adobe Illustrator 17.1.0, SVG Export Plug-In . SVG Version: 6.00 Build 0)  -->
<!DOCTYPE svg PUBLIC "-//W3C//DTD SVG 1.1//EN" "http://www.w3.org/Graphics/SVG/1.1/DTD/svg11.dtd">
<svg version="1.1" id="Layer_1" xmlns="http://www.w3.org/2000/svg" xmlns:xlink="http://www.w3.org/1999/xlink" x="0px" y="0px"
	 viewBox="0 0 160.6 216" enable-background="new 0 0 160.6 216" xml:space="preserve">
<g>
	<path fill="none" d="M75.6,44.6c-3,3-5,7.4-5,12.4c0,4.7,1.5,8.3,4.4,10.9c4.1,3.8,9.8,5.7,19.9,9.4l26.3-30.6
		c-11.8-8.2-21.7-8.9-26.4-8.9C88.6,37.8,80.9,38.7,75.6,44.6z"/>
	<path fill="#DA7827" d="M63.3,71.8c-3-2.7-4.4-6.2-4.4-10.9c0-5,2.1-9.4,5-12.4c5.3-5.9,13-6.8,19.2-6.8c4.7,0,14.5,0.7,26.4,8.9
		l25.1-29.2C112.2,5.6,91.2,3.3,78,3.3c-18.3,0-34.8,3.8-48.7,18C17.5,33.4,12.2,48.2,12.2,65.6c0,9.4,1.5,23.3,11.8,34.2
		c7.7,8.3,18.3,12.4,27.4,15.6l1.7,0.6l30-34.9C73,77.5,67.4,75.7,63.3,71.8z"/>
	<path fill="#DA7827" d="M38.4,142.9l-0.8,1L38.4,142.9C38.5,142.9,38.4,142.9,38.4,142.9z"/>
	<g>
		<path fill="#FFFFFF" d="M39.8,204.7c12.4,6.2,24.8,8.3,39,8.3c13,0,38.4-1.8,55.8-20.1c10.3-10.6,17.4-28.3,17.4-48.7
			c0-11.5-3-25.7-14.5-36.6c-7.7-7.4-18.3-11.8-26.9-15.1l-14.8-5.6c-1.7-0.7-3.4-1.3-4.9-1.8L61,120l14.5,5
			c5.6,2.1,17.7,6.5,23,10.9c4.1,3.5,6.8,7.7,6.8,14.2c0,7.4-3.2,12.7-7.1,15.9c-6.5,5.6-14.8,6.8-20.7,6.8
			c-9.1,0-17.1-2.4-24.8-7.1c-5.3-3.2-13.2-10-18.2-15l-0.8,1l-22.9,31.4C18.3,190.5,29.8,199.7,39.8,204.7z"/>
		<path fill="#FFFFFF" d="M144.3,26.7c-0.7-0.5-1.3-0.9-2-1.4l-25.1,29.2c2.2,1.5,4.4,3.2,6.7,5.3"/>
	</g>
</g>
</svg>
