<?xml version="1.0" encoding="utf-8"?>
<!-- Generator: Adobe Illustrator 17.1.0, SVG Export Plug-In . SVG Version: 6.00 Build 0)  -->
<!DOCTYPE svg PUBLIC "-//W3C//DTD SVG 1.1//EN" "http://www.w3.org/Graphics/SVG/1.1/DTD/svg11.dtd">
<svg version="1.1" id="Layer_1" xmlns="http://www.w3.org/2000/svg" xmlns:xlink="http://www.w3.org/1999/xlink" x="0px" y="0px"
	 viewBox="0 0 360 153" enable-background="new 0 0 360 153" xml:space="preserve">
<g>
	<polygon fill="#1C1C1C" points="159.4,133.7 182.5,133.7 182.5,98.8 159.4,118.1 	"/>
	<path fill="#1C1C1C" d="M200.3,84c0.2,15.8,6.7,28.7,15.6,37.3c8.4,8.3,20.9,14.6,39.4,14.6c6,0,13.2-0.9,22.1-5.4v-26.6
		c-8.9,8.7-17,10.4-23,10.4c-12.3,0-19.6-6.3-21.7-8.4c-4.5-4.4-8.7-11.7-8.7-22.1c0-9.6,3.9-17.8,9.5-23.2c5.3-5.1,12-7.8,20.5-7.8
		c10.7,0,18.4,5.3,23.5,10.7V36.6c-5.4-2.3-10.2-3.8-14.6-4.6L200.3,84z"/>
	<polygon fill="#1C1C1C" points="296.1,133.7 352.9,133.7 352.9,114.1 319.3,114.1 319.3,91.8 351.2,91.8 351.2,72.3 319.3,72.3 
		319.3,52.9 352.9,52.9 352.9,33.3 296.1,33.3 	"/>
</g>
<g>
	<path fill="#DA7827" d="M58.1,65.5l-7.5-2.9c-6.8-2.6-10.2-3.5-12.6-5.7c-1.5-1.4-2.3-3.2-2.3-5.6c0-2.6,1.1-4.8,2.6-6.3
		c2.7-3,6.6-3.5,9.8-3.5c2.9,0,9.3,0.4,16.9,7.2l10.4-16.9C63.5,23.2,52.4,22,45.5,22c-9.3,0-17.8,2-24.8,9.2
		c-6,6.2-8.7,13.7-8.7,22.6c0,4.8,0.7,11.9,6,17.5c3.9,4.2,9.3,6.3,14,8l8.3,2.9c2.9,1.1,9,3.3,11.7,5.6c2.1,1.8,3.5,3.9,3.5,7.2
		c0,3.8-1.7,6.5-3.6,8.1c-3.3,2.9-7.5,3.5-10.5,3.5c-4.7,0-8.7-1.2-12.6-3.6c-2.7-1.7-6.8-5.1-9.3-7.7l-12,16.6
		c3.8,3.8,9.6,8.4,14.8,11c6.3,3.2,12.7,4.2,19.9,4.2c6.6,0,19.6-0.9,28.5-10.2c5.3-5.4,8.9-14.5,8.9-24.8c0-5.9-1.5-13.1-7.4-18.7
		C67.9,69.4,62.5,67.1,58.1,65.5z"/>
	<polygon fill="#DA7827" points="119.1,105.1 119.1,24.2 96,24.2 96,124.6 145.1,124.6 150.3,120.3 150.3,105.1 	"/>
	<polygon fill="#DA7827" points="163.9,24.2 163.9,109.1 187.1,89.8 187.1,24.2 	"/>
	<path fill="#DA7827" d="M258,22c-15.7,0-28.6,5.9-37.5,14.5c-9,8.7-15.7,22-15.7,37.8c0,0.3,0,0.5,0,0.8l62.7-52.1
		C264.1,22.3,260.9,22,258,22z"/>
</g>
<g>
	<path fill="#1C1C1C" d="M8.2,137.9h4.7v-3.7h1v9.1h-1v-4.5H8.2v4.5h-1v-9.1h1V137.9z"/>
	<path fill="#1C1C1C" d="M18.5,135.1v8.2h-1v-8.2h-2.2v-1h5.5v1H18.5z"/>
	<path fill="#1C1C1C" d="M21.8,143.3l1.5-9.7l3.5,7.7l3.6-7.7l1.4,9.7h-1l-0.9-6.4l-3.1,6.7l-3.1-6.7l-0.9,6.4H21.8z"/>
	<path fill="#1C1C1C" d="M34.9,134.2v8.2h2.5v1h-3.5v-9.1H34.9z"/>
	<path fill="#1C1C1C" d="M46.2,135.1H43v2.7h3v1h-3v4.5h-1v-9.1h4.2V135.1z"/>
	<path fill="#1C1C1C" d="M49.4,134.2c0.6,0,1.5,0,2.2,0.5c0.5,0.4,1,1.1,1,2c0,1.4-0.9,2.4-2.3,2.5l2.9,4.1H52l-2.8-4H49v4h-1v-9.1
		H49.4z M49,138.4h0.6c1.3,0,2-0.6,2-1.7c0-0.5-0.2-1-0.7-1.3c-0.4-0.2-0.9-0.3-1.3-0.3H49V138.4z"/>
	<path fill="#1C1C1C" d="M59.9,140.7H56l-1.1,2.6h-1.1l4.2-9.6l4.1,9.6H61L59.9,140.7z M59.5,139.8l-1.5-3.7l-1.6,3.7H59.5z"/>
	<path fill="#1C1C1C" d="M63.1,143.3l1.5-9.7l3.5,7.7l3.6-7.7l1.4,9.7h-1l-0.9-6.4l-3.1,6.7l-3.1-6.7l-0.9,6.4H63.1z"/>
	<path fill="#1C1C1C" d="M80,135.1h-3.7v2.7h3.6v1h-3.6v3.6H80v1h-4.7v-9.1H80V135.1z"/>
	<path fill="#1C1C1C" d="M81.9,134.2l2.4,6.9l2.9-7.3l2.7,7.3l2.7-6.9h1.1l-3.8,9.6l-2.7-7.3l-2.9,7.3l-3.5-9.6H81.9z"/>
	<path fill="#1C1C1C" d="M94.5,138.7c0-2.7,2.1-4.7,4.8-4.7c2.6,0,4.8,2,4.8,4.7c0,2.7-2.1,4.7-4.8,4.7
		C96.6,143.5,94.5,141.5,94.5,138.7z M95.5,138.7c0,2.1,1.7,3.8,3.7,3.8c2.1,0,3.7-1.7,3.7-3.8s-1.7-3.8-3.7-3.8
		C97.2,135,95.5,136.6,95.5,138.7z"/>
	<path fill="#1C1C1C" d="M107.3,134.2c0.6,0,1.5,0,2.2,0.5c0.5,0.4,1,1.1,1,2c0,1.4-0.9,2.4-2.3,2.5l2.9,4.1h-1.2l-2.8-4h-0.3v4h-1
		v-9.1H107.3z M106.9,138.4h0.6c1.3,0,2-0.6,2-1.7c0-0.5-0.2-1-0.7-1.3c-0.4-0.2-0.9-0.3-1.3-0.3h-0.6V138.4z"/>
	<path fill="#1C1C1C" d="M113.8,138.1l3.9-3.9h1.4l-4.3,4.3l4.4,4.9h-1.4l-3.7-4.2l-0.3,0.3v3.9h-1v-9.1h1V138.1z"/>
</g>
<polygon fill="#1C1C1C" points="124.2,143.3 288,7.4 286,7.4 122.2,143.3 "/>
</svg>
