<?xml version="1.0" encoding="utf-8"?>
<!-- Generator: Adobe Illustrator 17.1.0, SVG Export Plug-In . SVG Version: 6.00 Build 0)  -->
<!DOCTYPE svg PUBLIC "-//W3C//DTD SVG 1.1//EN" "http://www.w3.org/Graphics/SVG/1.1/DTD/svg11.dtd">
<svg version="1.1" id="Layer_1" xmlns="http://www.w3.org/2000/svg" xmlns:xlink="http://www.w3.org/1999/xlink" x="0px" y="0px"
	 viewBox="0 0 360 153" enable-background="new 0 0 360 153" xml:space="preserve">
<path fill="#DA7827" d="M72.1,92.3c-4.1-3.8-8.8-5.6-13.3-7l-6.8-2.2c-3.2-1.1-5.9-1.6-7.8-2.7c-1.3-0.7-2.5-1.8-2.5-3.6
	c0-1.3,0.7-2.7,1.6-3.6c1.6-1.6,4.7-2.3,7.4-2.3c5,0,10.3,2.2,14.2,4.5L75.1,59c-6.5-3.8-14.8-6.8-26.7-6.8
	c-7.4,0-17.1,1.4-24.3,8.1c-4.7,4.3-7.7,10.8-7.7,18.6c0,6.1,2,10.6,5.8,14.6c0.6,0.6,1.2,1.1,1.8,1.6h50.5
	C73.8,94.1,73,93.2,72.1,92.3z"/>
<rect x="94.6" y="3.8" fill="#DA7827" width="26" height="91.2"/>
<path fill="#DA7827" d="M156.2,35.7c8.5,0,15.1-6.7,15.1-15.1s-6.7-15.1-15.1-15.1c-8.5,0-15.1,6.7-15.1,15.1S147.8,35.7,156.2,35.7
	z"/>
<rect x="143.3" y="54.8" fill="#DA7827" width="26" height="40.2"/>
<path fill="#DA7827" d="M219.8,79.9c1.8-1.8,6.7-5.8,14.8-5.8c4.1,0,10.6,0.9,16.9,6.1V56.6c-6.8-3.2-13.3-4.5-20.4-4.5
	c-11,0-21.6,2.9-30.6,11.4c-7.5,7.2-13.3,17.9-13.3,31.5h26.7C213.9,88.5,216.4,83.3,219.8,79.9z"/>
<path fill="#DA7827" d="M339.9,64.2C330,53.8,317,52.1,308,52.1c-9,0-21.1,1.8-30.8,11.5c-8,8.2-12.2,19.9-12.2,31.4h86.3
	C351,85.4,348.9,73.7,339.9,64.2z M292.1,84c0.7-3.6,2.5-6.5,4.5-8.7c2.5-2.5,6.5-5.2,13.2-5.2c5.2,0,9.4,1.8,12.3,4.5
	c3.8,3.6,5,8.7,5.2,9.4H292.1z"/>
<path fill="#454545" d="M37.2,105.2c3.8,1.1,6.1,1.9,7.9,3c2.3,1.5,2.8,3.3,2.8,4.7c0,2-1.1,3.9-2.8,5.2c-2.4,1.8-6.5,1.7-8.1,1.7
	c-3.4-0.1-7.2-0.8-10.8-2.7c-2.7-1.3-6.2-3.9-8.7-6.1L6.2,128.3c10.3,9.4,22,11.9,32.8,12.1c8.5,0.1,18.2-1,26.3-8.8
	c3.7-3.5,8.5-10.3,8.6-21c0.1-4.9-0.9-9-3.7-12.7l-50.5-0.8c3.2,2.7,7.2,4.7,11.1,5.9L37.2,105.2z"/>
<rect x="82.9" y="105.6" transform="matrix(-1.595100e-02 0.9999 -0.9999 -1.595100e-02 223.1875 17.4974)" fill="#454545" width="40.2" height="26"/>
<rect x="131.5" y="106.4" transform="matrix(-1.595100e-02 0.9999 -0.9999 -1.595100e-02 273.3903 -30.3587)" fill="#454545" width="40.2" height="26"/>
<path fill="#454545" d="M195.1,130.8c7.3,7.3,17.5,12.4,31,12.6c7.2,0.1,13.7-0.9,20.6-4.5l0.4-23.4c-6,4.9-12.2,6.1-16.7,6
	c-5.8-0.1-11.7-2.3-15.6-6.7c-3.2-3.5-5.3-8.6-5.2-14.5c0,0,0,0,0,0l-26.7-0.4c0,0.1,0,0.1,0,0.2C182.7,114.5,189,124.7,195.1,130.8
	z"/>
<path fill="#454545" d="M272.2,132.5c9.2,9.5,19.8,11.9,31.9,12c9,0.1,17.7-1,25.5-5.5c4.7-2.8,12-8.6,15.8-19.9l-24.5-2.9
	c-2.2,4.5-5.3,6.4-5.7,6.6c-2.7,1.6-6.7,2.2-10.5,2.2c-4-0.1-9.4-0.9-13.3-5.3c-3.2-3.7-4.7-9.4-4.6-13.8l60,1l0-2.7
	c0-0.6,0-1.2,0-1.8l-86.3-1.4c0,0.1,0,0.2,0,0.4C260.4,114.7,265.3,125.4,272.2,132.5z"/>
</svg>
